<?xml version="1.0" standalone="no"?>
<!DOCTYPE svg PUBLIC "-//W3C//DTD SVG 20010904//EN"
 "http://www.w3.org/TR/2001/REC-SVG-20010904/DTD/svg10.dtd">
<svg version="1.0" xmlns="http://www.w3.org/2000/svg"
 width="400.000000pt" height="400.000000pt" viewBox="0 0 400.000000 400.000000"
 preserveAspectRatio="xMidYMid meet">
<metadata>
Created by potrace 1.11, written by Peter Selinger 2001-2013
</metadata>
<g transform="translate(0.000000,400.000000) scale(0.100000,-0.100000)"
fill="#000000" stroke="none">
<path d="M1219 3984 c21 -15 147 -17 1382 -22 l1359 -5 0 -747 c0 -862 6
-1136 27 -1144 11 -5 13 157 13 964 l0 970 -1402 0 c-1300 0 -1401 -1 -1379
-16z"/>
<path d="M1705 3491 c-65 -10 -138 -40 -255 -105 -52 -29 -142 -77 -200 -106
-175 -86 -204 -111 -288 -235 -79 -117 -117 -191 -151 -294 -17 -51 -21 -89
-21 -188 0 -103 -5 -142 -27 -226 -19 -72 -27 -128 -27 -192 -1 -92 9 -129
140 -545 10 -30 32 -71 50 -91 88 -100 117 -351 70 -594 -15 -74 -13 -85 9
-85 28 0 55 152 55 314 0 106 0 106 25 106 13 0 40 8 60 17 40 19 52 48 82
202 16 81 17 124 10 386 -2 75 11 119 51 173 52 72 119 88 212 53 69 -26 111
-60 152 -123 67 -102 94 -199 104 -368 6 -103 4 -126 -19 -220 -46 -189 -51
-214 -51 -305 -1 -86 1 -93 34 -148 48 -80 83 -110 175 -151 l80 -35 -3 -39
c-2 -22 1 -58 7 -80 9 -33 15 -39 31 -35 11 3 20 8 20 12 -1 3 -5 25 -9 49 -6
32 -5 45 4 48 6 3 48 -9 91 -27 258 -104 623 -167 799 -139 98 15 166 50 234
117 106 106 116 205 42 419 -44 128 -44 138 10 163 50 24 58 59 30 124 -31 70
-31 79 2 95 37 18 67 68 67 111 0 18 -14 59 -30 90 -32 59 -151 221 -213 290
-48 54 -47 78 8 187 50 98 56 139 30 237 -8 32 -15 67 -15 78 0 10 -12 68 -26
127 -32 132 -29 190 11 232 l27 29 -17 78 c-22 101 -43 172 -59 201 -15 27
-167 143 -289 220 -138 86 -235 121 -390 138 -73 7 -168 19 -212 25 -102 14
-355 20 -420 10z m825 -492 c84 -23 165 -61 249 -118 72 -50 111 -86 111 -105
0 -18 47 -56 69 -56 13 0 21 -19 33 -82 9 -46 31 -150 48 -232 19 -95 28 -161
24 -180 -4 -17 -24 -64 -45 -104 -26 -50 -39 -87 -39 -113 0 -42 23 -109 38
-109 23 0 224 -281 237 -331 11 -43 -11 -78 -59 -99 -42 -18 -47 -18 -96 -2
-49 16 -53 15 -120 -8 -68 -24 -70 -24 -106 -6 -30 14 -35 14 -25 2 23 -27 68
-29 137 -5 64 23 65 23 118 5 45 -16 55 -23 58 -46 l4 -26 -76 4 c-120 7 -225
-34 -389 -153 -19 -14 -41 -25 -50 -25 -9 0 -50 16 -91 36 -81 39 -234 101
-345 141 -87 31 -138 78 -167 153 -17 46 -22 87 -28 255 -5 110 -11 219 -15
241 -4 23 -2 74 5 114 9 56 18 78 41 101 36 37 36 61 -1 124 -41 68 -39 117 6
225 19 47 38 94 41 105 4 10 17 34 29 53 13 18 28 59 35 90 19 96 37 130 72
140 158 47 160 47 297 11z m558 -1808 c10 -6 92 -219 92 -238 0 -1 -17 9 -37
23 -72 48 -109 45 -170 -17 l-41 -41 -33 16 c-51 24 -83 78 -84 139 0 48 2 52
40 78 22 15 56 32 75 37 44 12 141 14 158 3z"/>
<path d="M2685 2225 c-5 -2 -29 -9 -52 -15 -26 -6 -72 -35 -122 -76 -45 -35
-81 -67 -81 -70 0 -2 30 11 68 30 37 18 91 41 121 50 53 15 55 15 125 -10 117
-44 176 -42 159 3 -8 21 -82 61 -134 72 -25 6 -52 12 -60 15 -8 2 -18 3 -24 1z"/>
<path d="M0 822 l0 -822 1183 0 c975 1 1179 3 1165 14 -26 19 -393 26 -1420
26 l-888 0 0 503 c0 710 -9 1068 -26 1087 -12 12 -14 -109 -14 -808z"/>
</g>
</svg>
